# xmcd
#
# Track frame offsets:
#	150
#	11005
#	21750
#	32810
#	45010
#	58060
#	69345
#	81090
#	94395
#	105430
#	114885
#	124800
#	135020
#	148355
#	158820
#	170255
#	182800
#	193955
#	205140
#	218740
#	229770
#	241090
#	253240
#	262235
#	272095
#	282215
#	294580
#	303355
#	314010
#	322525
#
# Disc length: 4432 seconds
#
# Revision: 1
# Processed by: cddbd v1.5.1PL0 Copyright (c) Steve Scherf et al.
# Submitted via: audiograbber 1.82.02
#
DISCID=ab114e1e
DTITLE=Various Artist - Bump Jump Jive Vol. 7
DYEAR=1900
DGENRE=Rhythm and Blues
TTITLE0=Big Joe Turner - We're Gonna Jump Tonight
TTITLE1=Calvin Boze - Salfronia B
TTITLE2=Kay Star - Oh Babe
TTITLE3=Helen Humes - Be Baba Leba
TTITLE4=Jackie Brenston - Independent Woman
TTITLE5=Dave Bartholomew - When The Saints Go Marchin' In
TTITLE6=Snookum Russell - Juke Box Boogie Woogie Chick
TTITLE7=Ella Mae Morse - Solid Potato Salad
TTITLE8=Roscoe Gordon - Baby Let's Get High
TTITLE9=Big May Belle - Tell Me Who
TTITLE10=Roscoe Gordon - Just Love Me Baby
TTITLE11=Bill Tate - Single Life
TTITLE12=Roy Brown - Cadillac Baby
TTITLE13=The Du-Droppers - I Wanna Know
TTITLE14=Betty Hall Jones - This Jpint's Too Hip For Me
TTITLE15=Tiny Bradshaw - Train Kept-A-Rollin'
TTITLE16=Charlie and Ray - Oh Gee Ooh Wee
TTITLE17=Wynonie Harris - Quit Wiskey
TTITLE18=Cecil Payne - Block Buster Boogie
TTITLE19=Nappy Brown - Don't Be Angry
TTITLE20=H-Bomb Ferguson - Mary Little Mary
TTITLE21=The Tillers - Eetilyadee
TTITLE22=L.C. McKinley - Nitwit
TTITLE23=Wynonna Carr - Ding Dong Daddy
TTITLE24=Ike Carpenter - Pachuko Hop
TTITLE25=Roy Brown - Love Don't Love Nobody
TTITLE26=Hal Paige  and The Wailers - Thunderbird
TTITLE27=The Du-Droppers - I Found Out
TTITLE28=Paul Griffen - Ragdoll Baby
TTITLE29=The Drivers - Woman
EXTD=
EXTT0=
EXTT1=
EXTT2=
EXTT3=
EXTT4=
EXTT5=
EXTT6=
EXTT7=
EXTT8=
EXTT9=
EXTT10=
EXTT11=
EXTT12=
EXTT13=
EXTT14=
EXTT15=
EXTT16=
EXTT17=
EXTT18=
EXTT19=
EXTT20=
EXTT21=
EXTT22=
EXTT23=
EXTT24=
EXTT25=
EXTT26=
EXTT27=
EXTT28=
EXTT29=
PLAYORDER=
